<?xml version="1.0" encoding="UTF-8"?>
<svg width="600" height="400" viewBox="0 0 600 400" xmlns="http://www.w3.org/2000/svg">
  <defs>
    <!-- Gradients -->
    <linearGradient id="primaryGradient" x1="0%" y1="0%" x2="100%" y2="100%">
      <stop offset="0%" stop-color="#3b82f6" />
      <stop offset="100%" stop-color="#0ea5e9" />
    </linearGradient>
    <linearGradient id="secondaryGradient" x1="0%" y1="0%" x2="100%" y2="100%">
      <stop offset="0%" stop-color="#8b5cf6" />
      <stop offset="100%" stop-color="#d946ef" />
    </linearGradient>
    <linearGradient id="tertiaryGradient" x1="0%" y1="0%" x2="100%" y2="100%">
      <stop offset="0%" stop-color="#14b8a6" />
      <stop offset="100%" stop-color="#10b981" />
    </linearGradient>
    
    <!-- Filters -->
    <filter id="shadow" x="-20%" y="-20%" width="140%" height="140%">
      <feDropShadow dx="0" dy="3" stdDeviation="5" flood-opacity="0.2"/>
    </filter>
  </defs>
  
  <!-- Main MCP circle (center) -->
  <circle cx="300" cy="200" r="70" fill="url(#primaryGradient)" filter="url(#shadow)"/>
  <text x="300" y="190" text-anchor="middle" font-family="Arial" font-weight="bold" font-size="16" fill="white">Master Control</text>
  <text x="300" y="210" text-anchor="middle" font-family="Arial" font-weight="bold" font-size="16" fill="white">Program (MCP)</text>
  
  <!-- Agent circles -->
  <g class="agent" transform="translate(0,0)">
    <circle cx="150" cy="120" r="40" fill="url(#secondaryGradient)" filter="url(#shadow)"/>
    <text x="150" y="125" text-anchor="middle" font-family="Arial" font-weight="bold" font-size="14" fill="white">Research</text>
    <text x="150" y="145" text-anchor="middle" font-family="Arial" font-size="12" fill="white">Agent</text>
  </g>
  
  <g class="agent" transform="translate(0,0)">
    <circle cx="120" cy="250" r="40" fill="url(#secondaryGradient)" filter="url(#shadow)"/>
    <text x="120" y="255" text-anchor="middle" font-family="Arial" font-weight="bold" font-size="14" fill="white">Coding</text>
    <text x="120" y="275" text-anchor="middle" font-family="Arial" font-size="12" fill="white">Agent</text>
  </g>
  
  <g class="agent" transform="translate(0,0)">
    <circle cx="450" cy="120" r="40" fill="url(#secondaryGradient)" filter="url(#shadow)"/>
    <text x="450" y="125" text-anchor="middle" font-family="Arial" font-weight="bold" font-size="14" fill="white">Data</text>
    <text x="450" y="145" text-anchor="middle" font-family="Arial" font-size="12" fill="white">Agent</text>
  </g>
  
  <g class="agent" transform="translate(0,0)">
    <circle cx="480" cy="250" r="40" fill="url(#secondaryGradient)" filter="url(#shadow)"/>
    <text x="480" y="255" text-anchor="middle" font-family="Arial" font-weight="bold" font-size="14" fill="white">Writing</text>
    <text x="480" y="275" text-anchor="middle" font-family="Arial" font-size="12" fill="white">Agent</text>
  </g>
  
  <g class="agent" transform="translate(0,0)">
    <circle cx="300" cy="350" r="40" fill="url(#secondaryGradient)" filter="url(#shadow)"/>
    <text x="300" y="355" text-anchor="middle" font-family="Arial" font-weight="bold" font-size="14" fill="white">Analysis</text>
    <text x="300" y="375" text-anchor="middle" font-family="Arial" font-size="12" fill="white">Agent</text>
  </g>
  
  <!-- Connection lines from MCP to agents -->
  <g stroke="url(#primaryGradient)" stroke-width="3" stroke-dasharray="5,5">
    <line x1="235" y1="175" x2="180" y2="140" opacity="0.7"/>
    <line x1="235" y1="225" x2="155" y2="250" opacity="0.7"/>
    <line x1="365" y1="175" x2="415" y2="140" opacity="0.7"/>
    <line x1="365" y1="225" x2="445" y2="250" opacity="0.7"/>
    <line x1="300" y1="270" x2="300" y2="310" opacity="0.7"/>
  </g>
  
  <!-- Policy modules -->
  <g class="module" transform="translate(0,0)">
    <rect x="200" y="40" width="80" height="40" rx="10" fill="url(#tertiaryGradient)" filter="url(#shadow)"/>
    <text x="240" y="65" text-anchor="middle" font-family="Arial" font-weight="bold" font-size="12" fill="white">Policies</text>
  </g>
  
  <g class="module" transform="translate(0,0)">
    <rect x="320" y="40" width="80" height="40" rx="10" fill="url(#tertiaryGradient)" filter="url(#shadow)"/>
    <text x="360" y="65" text-anchor="middle" font-family="Arial" font-weight="bold" font-size="12" fill="white">Memory</text>
  </g>
  
  <g class="module" transform="translate(0,0)">
    <rect x="200" y="320" width="80" height="40" rx="10" fill="url(#tertiaryGradient)" filter="url(#shadow)"/>
    <text x="240" y="345" text-anchor="middle" font-family="Arial" font-weight="bold" font-size="12" fill="white">Workflow</text>
  </g>
  
  <g class="module" transform="translate(0,0)">
    <rect x="320" y="320" width="80" height="40" rx="10" fill="url(#tertiaryGradient)" filter="url(#shadow)"/>
    <text x="360" y="345" text-anchor="middle" font-family="Arial" font-weight="bold" font-size="12" fill="white">Resources</text>
  </g>
  
  <!-- Connection lines from modules to MCP -->
  <g stroke="url(#tertiaryGradient)" stroke-width="3" opacity="0.7">
    <line x1="240" y1="80" x2="270" y2="140"/>
    <line x1="360" y1="80" x2="330" y2="140"/>
    <line x1="240" y1="320" x2="270" y2="260"/>
    <line x1="360" y1="320" x2="330" y2="260"/>
  </g>
</svg>