<?xml version="1.0" encoding="UTF-8"?>
<svg width="120" height="120" viewBox="0 0 120 120" xmlns="http://www.w3.org/2000/svg">
  <defs>
    <linearGradient id="logoGradient" x1="0%" y1="0%" x2="100%" y2="100%">
      <stop offset="0%" stop-color="#3b82f6" />
      <stop offset="100%" stop-color="#0ea5e9" />
    </linearGradient>
  </defs>
  <circle cx="60" cy="60" r="55" fill="none" stroke="url(#logoGradient)" stroke-width="5"/>
  <g transform="translate(30, 35)">
    <!-- Brain icon -->
    <path fill="url(#logoGradient)" d="M53.92,25.24c0-2.12,0-4.24,0-6.37,0-2.94-1.29-4.23-4.25-4.23-1.2,0-2.41,0-3.61,0-0.53,0-0.75-0.17-0.77-0.72
      c-0.05-1.28-0.1-2.56-0.18-3.84c-0.01-0.28,0.11-0.69-0.35-0.72c-0.51-0.03-0.38,0.4-0.38,0.7c0,1.42,0,2.83,0,4.25
      c0,0.33-0.09,0.44-0.43,0.43c-1.28-0.02-2.56-0.01-3.84-0.01c-0.43,0-0.68-0.05-0.66-0.59c0.04-1.41-0.04-2.83,0.11-4.22
      c0.04-0.32-0.16-0.45-0.46-0.5c-0.26-0.04-0.34,0.11-0.35,0.34c-0.02,0.42,0.01,0.84,0.01,1.26c0,0.98-0.01,1.95,0.01,2.93
      c0,0.36-0.11,0.47-0.46,0.46c-0.7-0.02-1.4-0.01-2.1,0c-0.37,0-0.54-0.06-0.52-0.49c0.05-1.12-0.01-2.24,0.03-3.36
      c0.01-0.35-0.09-0.5-0.46-0.49c-0.42,0.02-0.52,0.21-0.39,0.58c0.03,0.09,0.01,0.2,0.01,0.3c0,0.84,0,1.67,0,2.51
      c0,0.33-0.07,0.46-0.43,0.45c-0.7-0.01-1.4-0.01-2.1,0c-0.36,0.01-0.47-0.1-0.45-0.45c0.02-0.7,0.02-1.4-0.01-2.1
      c-0.01-0.36,0.13-0.49,0.48-0.45c1.26,0.14,1.63-0.2,1.63-1.46c0-1.21,0-2.42,0-3.62c0.01-2.82-0.77-3.79-3.55-4.4
      c-0.97-0.21-1.91-0.54-2.92-0.07c-1.32,0.62-2.22,1.56-2.44,3.03c-0.12,0.8,0.03,1.63-0.04,2.44c-0.06,0.7-0.11,1.42-0.8,1.83
      c-1.06,0.65-1.33,1.65-1.25,2.82c0.06,0.91-0.12,1.85,0.34,2.73c0.03,0.07-0.18,0.31-0.28,0.31c-1.82,0.04-3.64,0.03-5.46,0.03
      c-2.09,0-3.78,0.94-4.64,2.89c-0.67,1.53-0.71,3.08-0.06,4.63c0.5,1.2,1.45,1.97,2.53,2.59c0.21,0.12,0.3,0.25,0.29,0.5
      c-0.04,1.14-0.03,2.28-0.01,3.42c0.01,0.35-0.1,0.46-0.45,0.45c-0.45-0.02-0.77,0.12-0.89,0.62c-0.09,0.36-0.39,0.36-0.63,0.45
      c-1.17,0.46-2.07,1.22-2.42,2.45c-0.4,1.4-0.46,2.81,0.13,4.17c0.54,1.24,1.47,2.05,2.71,2.57c0.14,0.06,0.29,0.16,0.33,0.35
      c0.09,0.47,0.5,0.57,0.86,0.5c0.46-0.09,0.56,0.08,0.55,0.52c-0.02,0.98-0.01,1.95-0.01,2.93c0,0.38-0.03,0.59-0.5,0.63
      c-0.43,0.04-0.84-0.05-1.14,0.35c-0.93,1.24-1.2,2.65-1.02,4.17c0.17,1.38,0.81,2.49,1.95,3.3c1.06,0.76,2.28,1.05,3.51,1.05
      c6.15,0.01,12.31,0,18.46,0.01c0.35,0,0.46,0.1,0.46,0.45c-0.01,1.88,0,3.76,0,5.65c0,0.36-0.07,0.52-0.48,0.5
      c-1.67-0.05-3.35-0.02-5.02-0.02c-1.9,0-3.36,1.09-3.78,2.92c-0.45,1.97-0.17,3.82,1.62,5.07c1.09,0.75,2.31,0.81,3.54,0.7
      c0.14-0.01,0.27-0.02,0.41-0.05c0.8-0.15,1.56-0.31,1.77-1.24c0.07-0.32,0.34-0.3,0.57-0.31c1.2-0.03,2.41-0.01,3.61-0.01
      c0.35,0,0.46,0.11,0.45,0.45c-0.01,0.7-0.01,1.4,0,2.1c0,0.36-0.12,0.47-0.47,0.47c-2.38,0-4.76,0-7.14,0
      c-3.81,0-6.01-2.48-5.5-6.26c0.39-2.9,2.67-4.42,5.67-3.74c0.4,0.09,0.3-0.22,0.3-0.43c0.01-2.1,0-4.19,0.01-6.29
      c0-0.33-0.09-0.44-0.42-0.44c-5.95,0.01-11.91,0.01-17.86,0.01c-1.36,0-2.64-0.25-3.66-1.17c-1.36-1.24-1.56-3.4-0.43-4.94
      c0.34-0.46,0.78-0.38,1.21-0.38c2.66,0,5.32,0,7.98,0c1.68,0,3.08-0.72,3.71-2.26c0.66-1.61,0.51-3.21-0.54-4.65
      c-0.79-1.09-1.87-1.6-3.17-1.6c-2.66,0-5.32,0.01-7.98-0.01c-0.45,0-0.45,0.19-0.45,0.54c0.01,1.25,0.02,2.51,0,3.76
      c-0.01,0.38,0.09,0.53,0.5,0.52c1.11-0.03,2.23,0.03,3.34-0.03c0.41-0.02,0.52,0.09,0.52,0.51c-0.01,0.42-0.11,0.53-0.53,0.53
      c-1.28-0.01-2.56,0-3.84,0c-0.34,0-0.48,0.08-0.47,0.44c0.01,0.7,0.01,1.4,0,2.1c-0.01,0.36,0.12,0.46,0.47,0.46
      c1.41-0.01,2.83,0.03,4.24-0.02c0.49-0.02,0.66,0.08,0.62,0.62c-0.04,0.55-0.19,0.43-0.52,0.43c-1.54,0.01-3.08,0-4.62,0.01
      c-0.33,0-0.47,0.07-0.47,0.44c0.01,0.84,0.01,1.67,0,2.51c0,0.35,0.1,0.46,0.45,0.46c1.54-0.01,3.08,0.01,4.62-0.01
      c0.44-0.01,0.58,0.11,0.51,0.53c-0.03,0.19-0.04,0.4-0.04,0.6c0,0.08-0.03,0.2-0.08,0.22c-0.23,0.09-0.47,0.17-0.71,0.17
      c-1.26,0.01-2.52,0-3.78,0.01c-0.46,0-0.56-0.16-0.56-0.59c0.01-6.85,0-13.7,0.01-20.55c0-0.35-0.09-0.47-0.46-0.47
      c-0.98,0.01-1.95,0.01-2.93,0c-0.35,0-0.47,0.08-0.45,0.45c0.04,1.12,0.04,2.24,0,3.36c-0.02,0.37,0.09,0.48,0.46,0.47
      c0.42-0.03,0.5-0.23,0.32-0.58c-0.04-0.09-0.02-0.19-0.02-0.29c0-0.7-0.01-1.4-0.01-2.09c0-0.36,0.13-0.46,0.47-0.46
      c0.42,0.01,0.84-0.01,1.26,0.01c0.33,0.01,0.48-0.08,0.48-0.45c-0.01-1.12,0-2.23-0.01-3.35c0-0.34-0.09-0.48-0.46-0.48
      c-0.98,0.01-1.95,0.01-2.93,0c-0.36,0-0.43,0.14-0.43,0.47c0.01,1.12,0.01,2.24,0,3.36c0,0.33,0.1,0.44,0.44,0.44
      c0.42-0.01,0.84,0.01,1.26,0c0.39-0.01,0.55,0.09,0.52,0.5c-0.03,0.42-0.22,0.45-0.55,0.45c-0.42,0-0.84,0.02-1.26,0
      c-0.38-0.02-0.47,0.13-0.46,0.48c0.01,0.84,0.01,1.67,0,2.51c0,0.34,0.1,0.44,0.44,0.44c0.7-0.01,1.4-0.01,2.1,0
      c0.36,0.01,0.42-0.16,0.42-0.47c0-0.98,0-1.95,0.01-2.93c0-0.36-0.12-0.47-0.47-0.46c-0.42,0.01-0.5,0.21-0.48,0.59
      c0.03,0.25-0.14,0.67,0.36,0.59c0.56-0.09,0.38-0.41,0.39-0.69c0.02-0.79-0.09-1.54,0.18-2.36c0.18-0.53-0.1-1.15,0.21-1.73
      c0.23-0.42-0.12-0.96,0.25-1.34c0.71-0.72,0.72-1.53,0.47-2.43c-0.41-1.49-0.26-2.99-0.24-4.5c0.01-0.76,0.02-1.54,0.25-2.27
      c0.6-1.96,2.64-3.56,4.64-3.58c3.9-0.03,7.81-0.01,11.71-0.01c0.35,0,0.47-0.09,0.46-0.45c-0.01-0.84-0.01-1.68,0-2.52
      c0-0.35-0.12-0.44-0.45-0.44c-1.12,0.01-2.24,0.01-3.36,0c-0.34,0-0.47,0.09-0.46,0.45c0.01,0.7,0.01,1.4,0,2.1
      c-0.01,0.35,0.12,0.45,0.46,0.45c0.98-0.01,1.95-0.01,2.93,0c0.36,0,0.5-0.07,0.43-0.45c-0.1-0.52-0.03-0.52-0.52-0.52
      c-0.91,0-0.96-0.05-0.97-0.98c0-1.76,0-3.52,0-5.28c0-0.99,0.01-1.01,1.01-1c1.64,0.01,3.29-0.01,4.93,0.01
      c0.36,0,0.49-0.08,0.48-0.47c-0.01-0.56,0-1.12,0-1.67c0-0.35-0.1-0.47-0.46-0.47c-1.82,0.01-3.64,0.01-5.46,0
      c-0.36,0-0.49,0.09-0.48,0.47c0.01,1.69,0,3.39,0,5.08c0,0.33-0.1,0.47-0.46,0.47c-0.7-0.01-1.4-0.01-2.1,0
      c-0.38,0-0.45-0.15-0.45-0.48c0.01-0.91,0.04-1.83-0.01-2.74c-0.01-0.28,0.08-0.37,0.35-0.37c0.56,0.01,1.11-0.04,1.66,0.01
      c0.36,0.04,0.46-0.1,0.45-0.45c-0.01-0.7-0.01-1.4,0-2.1c0.01-0.37-0.11-0.48-0.47-0.47c-0.42,0.01-0.84-0.01-1.26,0
      c-0.36,0.01-0.5,0.11-0.39,0.49c0.05,0.19-0.21,0.16-0.35,0.17c-0.17,0.01-0.22-0.1-0.21-0.25c0.01-0.12,0-0.24,0-0.35
      c-0.01-0.46,0.13-0.64,0.62-0.62c0.87,0.05,1.74,0,2.61,0.03c0.38,0.02,0.49-0.11,0.49-0.49c-0.02-0.56,0-1.12-0.01-1.67
      c0-0.33,0.1-0.45,0.44-0.44c0.84,0.02,1.67,0.01,2.51,0.01c0.37,0,0.51-0.1,0.49-0.49c-0.02-0.7-0.01-1.4-0.01-2.09
      c0-0.36-0.11-0.48-0.47-0.48c-0.7,0.01-1.4,0.01-2.1,0c-0.35,0-0.46,0.11-0.46,0.46c0.01,0.7,0.03,1.4-0.01,2.1
      c-0.02,0.37,0.12,0.46,0.46,0.46c0.62-0.01,0.65,0,0.65,0.63c0,0.41-0.13,0.55-0.54,0.54c-0.7-0.01-1.4-0.01-2.1,0
      c-0.37,0-0.52-0.08-0.51-0.49c0.02-0.91,0-1.83,0.02-2.74c0.01-0.34-0.11-0.44-0.45-0.44c-0.84,0.01-1.67,0-2.51,0.01
      c-0.35,0-0.48,0.07-0.35,0.46c0.04,0.11,0.01,0.25,0.01,0.38c0,0.32-0.1,0.41-0.41,0.4c-0.12-0.01-0.23,0-0.35,0
      c-0.39-0.01-0.57-0.16-0.5-0.54c0.06-0.34-0.3-0.28-0.53-0.29c-0.95-0.05-1.85,0.12-2.45,0.92c-0.34,0.45-0.66,0.94-0.93,1.45
      c-0.12,0.24-0.25,0.48-0.16,0.75c0.1,0.29,0.38,0.31,0.64,0.31c0.87-0.01,1.74,0.01,2.61-0.01c0.28-0.01,0.41,0.05,0.4,0.36
      C53.91,23.54,53.92,24.39,53.92,25.24z"/>
  </g>
</svg>